<svg width="16" height="16" viewBox="0 0 16 16" fill="none" xmlns="http://www.w3.org/2000/svg">
<g clip-path="url(#clip0_289_6775)">
<path d="M15.9999 5.32738C16.0005 5.49815 15.9628 5.66688 15.8897 5.82117C15.8165 5.97546 15.7097 6.11139 15.5771 6.21897L8.72061 11.74C8.51613 11.9081 8.25965 12 7.99496 12C7.73027 12 7.47379 11.9081 7.26932 11.74L0.412821 6.02465C0.179452 5.83063 0.0326952 5.55183 0.00483525 5.24957C-0.0230247 4.94731 0.0702944 4.64637 0.264263 4.41293C0.458232 4.1795 0.736961 4.0327 1.03913 4.00484C1.34131 3.97697 1.64217 4.07031 1.87554 4.26434L8.00068 9.37383L14.1258 4.4358C14.2936 4.29602 14.4978 4.20723 14.7144 4.17993C14.931 4.15264 15.1509 4.18798 15.3481 4.28177C15.5452 4.37557 15.7114 4.52389 15.8269 4.70919C15.9424 4.89449 16.0025 5.10902 15.9999 5.32738Z" fill="black"/>
</g>
<defs>
<clipPath id="clip0_289_6775">
<rect width="16" height="16" fill="white"/>
</clipPath>
</defs>
</svg>
