<svg width="16" height="8" viewBox="0 0 16 8" fill="none" xmlns="http://www.w3.org/2000/svg">
<path d="M15.9999 1.32738C16.0005 1.49815 15.9628 1.66688 15.8897 1.82117C15.8165 1.97546 15.7097 2.11139 15.5771 2.21897L8.72061 7.73997C8.51613 7.90809 8.25965 8 7.99496 8C7.73027 8 7.47379 7.90809 7.26932 7.73997L0.412821 2.02465C0.179452 1.83063 0.0326952 1.55183 0.00483525 1.24957C-0.0230247 0.947313 0.0702944 0.646367 0.264263 0.412934C0.458232 0.179502 0.736961 0.0327048 1.03913 0.00483699C1.34131 -0.0230303 1.64217 0.0703139 1.87554 0.264336L8.00068 5.37383L14.1258 0.435795C14.2936 0.296018 14.4978 0.207228 14.7144 0.179932C14.931 0.152636 15.1509 0.187976 15.3481 0.281771C15.5452 0.375566 15.7114 0.52389 15.8269 0.709193C15.9424 0.894495 16.0025 1.10902 15.9999 1.32738Z" fill="white"/>
</svg>
