<svg width="24" height="25" viewBox="0 0 24 25" fill="none" xmlns="http://www.w3.org/2000/svg">
<path d="M12 22.1064C10.6333 22.1064 9.34167 21.8438 8.125 21.3184C6.90833 20.7938 5.846 20.0771 4.938 19.1684C4.02933 18.2604 3.31267 17.1981 2.788 15.9814C2.26267 14.7648 2 13.4731 2 12.1064C2 10.7231 2.26267 9.42745 2.788 8.21945C3.31267 7.01078 4.02933 5.95245 4.938 5.04445C5.846 4.13578 6.90833 3.41878 8.125 2.89345C9.34167 2.36878 10.6333 2.10645 12 2.10645C13.3833 2.10645 14.679 2.36878 15.887 2.89345C17.0957 3.41878 18.154 4.13578 19.062 5.04445C19.9707 5.95245 20.6873 7.01078 21.212 8.21945C21.7373 9.42745 22 10.7231 22 12.1064V13.5564C22 14.5398 21.6627 15.3771 20.988 16.0684C20.3127 16.7604 19.4833 17.1064 18.5 17.1064C17.9 17.1064 17.3417 16.9731 16.825 16.7064C16.3083 16.4398 15.8833 16.0898 15.55 15.6564C15.1 16.1064 14.571 16.4608 13.963 16.7194C13.3543 16.9774 12.7 17.1064 12 17.1064C10.6167 17.1064 9.43767 16.6188 8.463 15.6434C7.48767 14.6688 7 13.4898 7 12.1064C7 10.7231 7.48767 9.54378 8.463 8.56845C9.43767 7.59378 10.6167 7.10645 12 7.10645C13.3833 7.10645 14.5627 7.59378 15.538 8.56845C16.5127 9.54378 17 10.7231 17 12.1064V13.5564C17 14.0398 17.15 14.4188 17.45 14.6934C17.75 14.9688 18.1 15.1064 18.5 15.1064C18.9 15.1064 19.25 14.9688 19.55 14.6934C19.85 14.4188 20 14.0398 20 13.5564V12.1064C20 9.92311 19.2123 8.04378 17.637 6.46845C16.0623 4.89378 14.1833 4.10645 12 4.10645C9.81667 4.10645 7.93733 4.89378 6.362 6.46845C4.78733 8.04378 4 9.92311 4 12.1064C4 14.2898 4.78733 16.1688 6.362 17.7434C7.93733 19.3188 9.81667 20.1064 12 20.1064H17V22.1064H12ZM12 15.1064C12.8333 15.1064 13.5417 14.8148 14.125 14.2314C14.7083 13.6481 15 12.9398 15 12.1064C15 11.2731 14.7083 10.5648 14.125 9.98145C13.5417 9.39811 12.8333 9.10645 12 9.10645C11.1667 9.10645 10.4583 9.39811 9.875 9.98145C9.29167 10.5648 9 11.2731 9 12.1064C9 12.9398 9.29167 13.6481 9.875 14.2314C10.4583 14.8148 11.1667 15.1064 12 15.1064Z" fill="#5A5A5A"/>
</svg>
