<svg width="24" height="25" viewBox="0 0 24 25" fill="none" xmlns="http://www.w3.org/2000/svg">
<path d="M4.60001 9.85769L4.60001 9.85745C4.60232 7.89529 5.38281 6.01416 6.77027 4.62671C8.15749 3.23949 10.0382 2.45903 12 2.45645C13.9618 2.45903 15.8425 3.23949 17.2297 4.62671C18.6172 6.01416 19.3977 7.89529 19.4 9.85745V9.85767C19.4023 11.4582 18.8795 13.0154 17.9117 14.2903L17.8267 14.4022L17.8266 14.4027L17.7969 14.4414C17.7669 14.4804 17.7365 14.52 17.7118 14.5518C17.6968 14.5711 17.6868 14.5839 17.6811 14.5913C17.6779 14.5953 17.676 14.5978 17.6752 14.5988L12 21.2921L6.32208 14.5957L6.32209 14.5957L6.31833 14.5913C6.3202 14.5935 6.32122 14.5947 6.32125 14.5947C6.32134 14.5946 6.31197 14.583 6.28846 14.5528C6.26397 14.5213 6.23378 14.482 6.20381 14.4429C6.15769 14.3827 6.11578 14.3277 6.0993 14.306C6.09395 14.299 6.09127 14.2955 6.09201 14.2964L5.41201 14.8064L6.08903 14.2925C5.12075 13.017 4.59766 11.4591 4.60001 9.85769ZM15.85 9.85751V9.85645C15.85 9.09499 15.6242 8.35063 15.2012 7.7175C14.7781 7.08437 14.1768 6.59091 13.4733 6.29951C12.7698 6.00811 11.9957 5.93187 11.2489 6.08042C10.5021 6.22897 9.81608 6.59565 9.27765 7.13408C8.73921 7.67252 8.37254 8.35852 8.22399 9.10535C8.07543 9.85217 8.15168 10.6263 8.44307 11.3298C8.73447 12.0333 9.22793 12.6346 9.86106 13.0576C10.4942 13.4806 11.2386 13.7064 12 13.7064V12.8564L12.0011 13.7064C13.0215 13.7052 13.9997 13.2992 14.7213 12.5777C15.4428 11.8562 15.8487 10.8779 15.85 9.85751Z" stroke="white" stroke-width="1.7"/>
</svg>
