<svg width="32" height="32" viewBox="0 0 32 32" fill="none" xmlns="http://www.w3.org/2000/svg">
<g clip-path="url(#clip0_233_7602)">
<path d="M13.4933 7.00009C13.6854 6.99943 13.8752 7.04182 14.0488 7.12414C14.2224 7.20645 14.3753 7.3266 14.4963 7.47576L20.7075 15.1893C20.8966 15.4194 21 15.7079 21 16.0057C21 16.3034 20.8966 16.592 20.7075 16.822L14.2777 24.5356C14.0595 24.7981 13.7458 24.9632 13.4058 24.9946C13.0657 25.0259 12.7272 24.9209 12.4645 24.7027C12.2019 24.4845 12.0368 24.1709 12.0054 23.831C11.9741 23.491 12.0791 23.1526 12.2974 22.89L18.0456 15.9992L12.4903 9.10846C12.333 8.91975 12.2331 8.68997 12.2024 8.44628C12.1717 8.2026 12.2115 7.95522 12.317 7.73342C12.4225 7.51162 12.5894 7.32468 12.7978 7.19472C13.0063 7.06476 13.2476 6.99722 13.4933 7.00009Z" fill="#FF9704"/>
<circle cx="16" cy="16" r="15" stroke="#FF9704" stroke-width="2"/>
</g>
<defs>
<clipPath id="clip0_233_7602">
<rect width="32" height="32" fill="white" transform="translate(32 32) rotate(-180)"/>
</clipPath>
</defs>
</svg>
