<svg width="16" height="17" viewBox="0 0 16 17" fill="none" xmlns="http://www.w3.org/2000/svg">
<g clip-path="url(#clip0_335_3369)">
<path d="M15.9999 6.29613C16.0005 6.4669 15.9628 6.63563 15.8897 6.78992C15.8165 6.94421 15.7097 7.08014 15.5771 7.18772L8.72061 12.7087C8.51613 12.8768 8.25965 12.9687 7.99496 12.9687C7.73027 12.9687 7.47379 12.8768 7.26932 12.7087L0.412821 6.9934C0.179452 6.79938 0.0326952 6.52058 0.00483525 6.21832C-0.0230247 5.91606 0.0702944 5.61512 0.264263 5.38168C0.458232 5.14825 0.736961 5.00145 1.03913 4.97359C1.34131 4.94572 1.64217 5.03906 1.87554 5.23309L8.00068 10.3426L14.1258 5.40455C14.2936 5.26477 14.4978 5.17598 14.7144 5.14868C14.931 5.12139 15.1509 5.15673 15.3481 5.25052C15.5452 5.34432 15.7114 5.49264 15.8269 5.67794C15.9424 5.86324 16.0025 6.07777 15.9999 6.29613Z" fill="#FF9704"/>
</g>
<defs>
<clipPath id="clip0_335_3369">
<rect width="16" height="16" fill="white" transform="translate(0 0.96875)"/>
</clipPath>
</defs>
</svg>
