<svg width="15" height="21" viewBox="0 0 15 21" fill="none" xmlns="http://www.w3.org/2000/svg">
<path fill-rule="evenodd" clip-rule="evenodd" d="M8.23665 2.08804C9.22131 0.382563 11.4021 -0.201778 13.1076 0.782879C14.813 1.76754 15.3974 3.94832 14.4127 5.65379L8.57785 15.7601C7.86173 17.0004 6.27571 17.4254 5.03536 16.7093C3.79502 15.9932 3.37004 14.4072 4.08616 13.1668L8.70544 5.166C8.88447 4.85591 9.28097 4.74967 9.59106 4.9287C9.90114 5.10772 10.0074 5.50423 9.82836 5.81432L5.20908 13.8151C4.85102 14.4353 5.06351 15.2283 5.68368 15.5864C6.30386 15.9444 7.09687 15.732 7.45493 15.1118L13.2898 5.00547C13.9164 3.92017 13.5446 2.5324 12.4592 1.9058C11.3739 1.2792 9.98617 1.65106 9.35957 2.73636L2.39014 14.8078C1.49499 16.3582 2.02621 18.3407 3.57664 19.2359C5.12708 20.131 7.10961 19.5998 8.00475 18.0494L13.7586 8.08344C13.9376 7.77335 14.3341 7.66711 14.6442 7.84613C14.9543 8.02516 15.0605 8.42167 14.8815 8.73176L9.12767 18.6977C7.87448 20.8683 5.09893 21.612 2.92833 20.3588C0.757719 19.1056 0.014015 16.3301 1.26721 14.1595L8.23665 2.08804Z" fill="black"/>
</svg>
