<svg width="19" height="20" viewBox="0 0 19 20" fill="none" xmlns="http://www.w3.org/2000/svg">
<path d="M17.4166 14.0012L16.4169 13.9764C16.4167 13.9847 16.4166 13.9929 16.4166 14.0012H17.4166ZM17.4166 16.3762H16.4166L16.4166 16.3803L17.4166 16.3762ZM15.6908 17.9595L15.5828 18.9537C15.5888 18.9543 15.5948 18.9549 15.6008 18.9555L15.6908 17.9595ZM8.85872 15.5291L9.40284 14.6901L9.39504 14.6851L8.85872 15.5291ZM4.10872 10.7791L4.95276 10.2428L4.948 10.2354L4.10872 10.7791ZM1.6783 3.91536L0.682359 4.00536C0.682829 4.01057 0.68334 4.01577 0.683892 4.02096L1.6783 3.91536ZM3.25372 2.18953V1.18953L3.25278 1.18953L3.25372 2.18953ZM5.62872 2.18953V3.18958L5.63856 3.18948L5.62872 2.18953ZM7.21205 3.5512L8.20351 3.42043L8.20221 3.41124L7.21205 3.5512ZM7.76622 5.77578L6.82932 6.12539L6.83017 6.12764L7.76622 5.77578ZM7.40997 7.4462L8.11709 8.15331L8.12102 8.14934L7.40997 7.4462ZM6.40455 8.45161L5.69744 7.74451C5.37913 8.06282 5.31274 8.55458 5.53526 8.94591L6.40455 8.45161ZM11.1546 13.2016L10.6603 14.0709C11.0516 14.2934 11.5433 14.227 11.8617 13.9087L11.1546 13.2016ZM12.16 12.1962L11.4568 11.4851L11.4529 11.4891L12.16 12.1962ZM13.8304 11.8399L13.4785 12.776L13.4808 12.7768L13.8304 11.8399ZM16.055 12.3941L16.1947 11.4039L16.1857 11.4027L16.055 12.3941ZM16.4166 14.0012V16.3762H18.4166V14.0012H16.4166ZM16.4166 16.3803C16.417 16.4615 16.4003 16.5419 16.3678 16.6163L18.2003 17.4175C18.3444 17.0879 18.4181 16.7319 18.4166 16.3721L16.4166 16.3803ZM16.3678 16.6163C16.3352 16.6907 16.2875 16.7576 16.2277 16.8125L17.5797 18.2862C17.8448 18.043 18.0562 17.7472 18.2003 17.4175L16.3678 16.6163ZM16.2277 16.8125C16.1678 16.8674 16.0971 16.9092 16.0202 16.9352L16.6609 18.8298C17.0017 18.7146 17.3146 18.5294 17.5797 18.2862L16.2277 16.8125ZM16.0202 16.9352C15.9432 16.9612 15.8617 16.9709 15.7808 16.9636L15.6008 18.9555C15.9591 18.9879 16.3202 18.945 16.6609 18.8298L16.0202 16.9352ZM15.7988 16.9654C13.5182 16.7176 11.3275 15.9383 9.40282 14.6901L8.31462 16.3681C10.5018 17.7865 12.9912 18.6721 15.5828 18.9537L15.7988 16.9654ZM9.39504 14.6851C7.60614 13.5484 6.08947 12.0317 4.95273 10.2428L3.2647 11.3154C4.55891 13.3521 6.28569 15.0789 8.3224 16.3731L9.39504 14.6851ZM4.948 10.2354C3.69546 8.30194 2.91598 6.10061 2.67271 3.80976L0.683892 4.02096C0.960337 6.62419 1.84611 9.12569 3.26944 11.3228L4.948 10.2354ZM2.67424 3.82536C2.66695 3.74471 2.67654 3.66342 2.70239 3.58667L0.807005 2.9483C0.692531 3.28818 0.650081 3.64817 0.682359 4.00536L2.67424 3.82536ZM2.70239 3.58667C2.72824 3.50992 2.76978 3.4394 2.82438 3.37959L1.34726 2.03121C1.10547 2.29609 0.92148 2.60841 0.807005 2.9483L2.70239 3.58667ZM2.82438 3.37959C2.87898 3.31977 2.94544 3.27199 3.01951 3.23926L2.21142 1.40979C1.88336 1.5547 1.58906 1.76633 1.34726 2.03121L2.82438 3.37959ZM3.01951 3.23926C3.09359 3.20654 3.17368 3.18961 3.25466 3.18953L3.25278 1.18953C2.89413 1.18987 2.53949 1.26488 2.21142 1.40979L3.01951 3.23926ZM3.25372 3.18953H5.62872V1.18953H3.25372V3.18953ZM5.63856 3.18948C5.78011 3.18809 5.91733 3.23821 6.02466 3.33051L7.32873 1.81414C6.85344 1.40539 6.24573 1.18341 5.61888 1.18958L5.63856 3.18948ZM6.02466 3.33051C6.13198 3.42281 6.20208 3.55099 6.22189 3.69115L8.20221 3.41124C8.11448 2.79053 7.80403 2.22289 7.32873 1.81414L6.02466 3.33051ZM6.22064 3.68195C6.33074 4.51678 6.53493 5.33647 6.82932 6.12538L8.70312 5.42618C8.46146 4.77858 8.29385 4.10572 8.20346 3.42044L6.22064 3.68195ZM6.83017 6.12764C6.86941 6.23204 6.8779 6.34549 6.85464 6.45456L8.81065 6.87172C8.91367 6.38868 8.87606 5.88624 8.70227 5.42392L6.83017 6.12764ZM6.85464 6.45456C6.83138 6.56364 6.77733 6.66376 6.69892 6.74306L8.12102 8.14934C8.4683 7.79815 8.70763 7.35476 8.81065 6.87172L6.85464 6.45456ZM6.70286 6.73909L5.69744 7.74451L7.11166 9.15872L8.11707 8.1533L6.70286 6.73909ZM5.53526 8.94591C6.75121 11.0844 8.52181 12.855 10.6603 14.0709L11.6488 12.3323C9.82334 11.2943 8.31185 9.78282 7.27385 7.95732L5.53526 8.94591ZM11.8617 13.9087L12.8671 12.9033L11.4529 11.4891L10.4474 12.4945L11.8617 13.9087ZM12.8631 12.9072C12.9424 12.8288 13.0425 12.7748 13.1516 12.7515L12.7344 10.7955C12.2514 10.8985 11.808 11.1379 11.4568 11.4851L12.8631 12.9072ZM13.1516 12.7515C13.2607 12.7283 13.3741 12.7368 13.4785 12.776L14.1822 10.9039C13.7199 10.7301 13.2175 10.6925 12.7344 10.7955L13.1516 12.7515ZM13.4808 12.7768C14.2697 13.0712 15.0894 13.2754 15.9242 13.3855L16.1857 11.4027C15.5004 11.3123 14.8276 11.1447 14.18 10.903L13.4808 12.7768ZM15.9153 13.3843C16.057 13.4043 16.1864 13.4757 16.2788 13.5848L17.8048 12.2919C17.3951 11.8085 16.8221 11.4924 16.1947 11.4039L15.9153 13.3843ZM16.2788 13.5848C16.3713 13.694 16.4205 13.8334 16.4169 13.9764L18.4163 14.026C18.432 13.3925 18.2144 12.7754 17.8048 12.2919L16.2788 13.5848Z" fill="white"/>
</svg>
