<svg width="19" height="18" viewBox="0 0 19 18" fill="none" xmlns="http://www.w3.org/2000/svg">
<path d="M17.4166 13.0012L16.4169 12.9764C16.4167 12.9847 16.4166 12.9929 16.4166 13.0012H17.4166ZM17.4166 15.3762H16.4166L16.4166 15.3803L17.4166 15.3762ZM15.6908 16.9595L15.5828 17.9537C15.5888 17.9543 15.5948 17.9549 15.6008 17.9555L15.6908 16.9595ZM8.85872 14.5291L9.40284 13.6901L9.39504 13.6851L8.85872 14.5291ZM4.10872 9.77911L4.95276 9.24277L4.948 9.23541L4.10872 9.77911ZM1.6783 2.91536L0.682359 3.00536C0.682829 3.01057 0.68334 3.01577 0.683892 3.02096L1.6783 2.91536ZM3.25372 1.18953V0.189529L3.25278 0.18953L3.25372 1.18953ZM5.62872 1.18953V2.18958L5.63856 2.18948L5.62872 1.18953ZM7.21205 2.5512L8.20351 2.42043L8.20221 2.41124L7.21205 2.5512ZM7.76622 4.77578L6.82932 5.12539L6.83017 5.12764L7.76622 4.77578ZM7.40997 6.4462L8.11709 7.15331L8.12102 7.14934L7.40997 6.4462ZM6.40455 7.45161L5.69744 6.74451C5.37913 7.06282 5.31274 7.55458 5.53526 7.94591L6.40455 7.45161ZM11.1546 12.2016L10.6603 13.0709C11.0516 13.2934 11.5433 13.227 11.8617 12.9087L11.1546 12.2016ZM12.16 11.1962L11.4568 10.4851L11.4529 10.4891L12.16 11.1962ZM13.8304 10.8399L13.4785 11.776L13.4808 11.7768L13.8304 10.8399ZM16.055 11.3941L16.1947 10.4039L16.1857 10.4027L16.055 11.3941ZM16.4166 13.0012V15.3762H18.4166V13.0012H16.4166ZM16.4166 15.3803C16.417 15.4615 16.4003 15.5419 16.3678 15.6163L18.2003 16.4175C18.3444 16.0879 18.4181 15.7319 18.4166 15.3721L16.4166 15.3803ZM16.3678 15.6163C16.3352 15.6907 16.2875 15.7576 16.2277 15.8125L17.5797 17.2862C17.8448 17.043 18.0562 16.7472 18.2003 16.4175L16.3678 15.6163ZM16.2277 15.8125C16.1678 15.8674 16.0971 15.9092 16.0202 15.9352L16.6609 17.8298C17.0017 17.7146 17.3146 17.5294 17.5797 17.2862L16.2277 15.8125ZM16.0202 15.9352C15.9432 15.9612 15.8617 15.9709 15.7808 15.9636L15.6008 17.9555C15.9591 17.9879 16.3202 17.945 16.6609 17.8298L16.0202 15.9352ZM15.7988 15.9654C13.5182 15.7176 11.3275 14.9383 9.40282 13.6901L8.31462 15.3681C10.5018 16.7865 12.9912 17.6721 15.5828 17.9537L15.7988 15.9654ZM9.39504 13.6851C7.60614 12.5484 6.08947 11.0317 4.95273 9.24279L3.2647 10.3154C4.55891 12.3521 6.28569 14.0789 8.3224 15.3731L9.39504 13.6851ZM4.948 9.23541C3.69546 7.30194 2.91598 5.10061 2.67271 2.80976L0.683892 3.02096C0.960337 5.62419 1.84611 8.12569 3.26944 10.3228L4.948 9.23541ZM2.67424 2.82536C2.66695 2.74471 2.67654 2.66342 2.70239 2.58667L0.807005 1.9483C0.692531 2.28818 0.650081 2.64817 0.682359 3.00536L2.67424 2.82536ZM2.70239 2.58667C2.72824 2.50992 2.76978 2.4394 2.82438 2.37959L1.34726 1.03121C1.10547 1.29609 0.92148 1.60841 0.807005 1.9483L2.70239 2.58667ZM2.82438 2.37959C2.87898 2.31977 2.94544 2.27199 3.01951 2.23926L2.21142 0.409788C1.88336 0.554697 1.58906 0.766328 1.34726 1.03121L2.82438 2.37959ZM3.01951 2.23926C3.09359 2.20654 3.17368 2.18961 3.25466 2.18953L3.25278 0.18953C2.89413 0.189868 2.53949 0.264879 2.21142 0.409788L3.01951 2.23926ZM3.25372 2.18953H5.62872V0.18953H3.25372V2.18953ZM5.63856 2.18948C5.78011 2.18809 5.91733 2.23821 6.02466 2.33051L7.32873 0.814141C6.85344 0.405388 6.24573 0.183409 5.61888 0.189578L5.63856 2.18948ZM6.02466 2.33051C6.13198 2.42281 6.20208 2.55099 6.22189 2.69115L8.20221 2.41124C8.11448 1.79053 7.80403 1.22289 7.32873 0.814141L6.02466 2.33051ZM6.22064 2.68195C6.33074 3.51678 6.53493 4.33647 6.82932 5.12538L8.70312 4.42618C8.46146 3.77858 8.29385 3.10572 8.20346 2.42044L6.22064 2.68195ZM6.83017 5.12764C6.86941 5.23204 6.8779 5.34549 6.85464 5.45456L8.81065 5.87172C8.91367 5.38868 8.87606 4.88624 8.70227 4.42392L6.83017 5.12764ZM6.85464 5.45456C6.83138 5.56364 6.77733 5.66376 6.69892 5.74306L8.12102 7.14934C8.4683 6.79815 8.70763 6.35476 8.81065 5.87172L6.85464 5.45456ZM6.70286 5.73909L5.69744 6.74451L7.11166 8.15872L8.11707 7.1533L6.70286 5.73909ZM5.53526 7.94591C6.75121 10.0844 8.52181 11.855 10.6603 13.0709L11.6488 11.3323C9.82334 10.2943 8.31185 8.78282 7.27385 6.95732L5.53526 7.94591ZM11.8617 12.9087L12.8671 11.9033L11.4529 10.4891L10.4474 11.4945L11.8617 12.9087ZM12.8631 11.9072C12.9424 11.8288 13.0425 11.7748 13.1516 11.7515L12.7344 9.79552C12.2514 9.89853 11.808 10.1379 11.4568 10.4851L12.8631 11.9072ZM13.1516 11.7515C13.2607 11.7283 13.3741 11.7368 13.4785 11.776L14.1822 9.90389C13.7199 9.73011 13.2175 9.6925 12.7344 9.79552L13.1516 11.7515ZM13.4808 11.7768C14.2697 12.0712 15.0894 12.2754 15.9242 12.3855L16.1857 10.4027C15.5004 10.3123 14.8276 10.1447 14.18 9.90305L13.4808 11.7768ZM15.9153 12.3843C16.057 12.4043 16.1864 12.4757 16.2788 12.5848L17.8048 11.2919C17.3951 10.8085 16.8221 10.4924 16.1947 10.4039L15.9153 12.3843ZM16.2788 12.5848C16.3713 12.694 16.4205 12.8334 16.4169 12.9764L18.4163 13.026C18.432 12.3925 18.2144 11.7754 17.8048 11.2919L16.2788 12.5848Z" fill="#5A5A5A"/>
</svg>
