<svg width="48" height="48" viewBox="0 0 48 48" fill="none" xmlns="http://www.w3.org/2000/svg">
<path d="M31.368 0H16.6335C3.1875 0 0 3.1875 0 16.6335V31.368C0 44.814 3.1875 48.0015 16.6335 48.0015H31.368C44.814 48.0015 48.0015 44.814 48.0015 31.368V16.6335C48.0015 3.1875 44.7825 0 31.368 0ZM38.751 34.242H35.2665C33.9465 34.242 33.54 33.195 31.1655 30.789C29.103 28.7895 28.1895 28.524 27.681 28.524C26.9625 28.524 26.7585 28.7265 26.7585 29.712V32.8605C26.7585 33.705 26.493 34.212 24.258 34.212C20.562 34.212 16.461 31.977 13.5855 27.813C9.249 21.711 8.0625 17.1405 8.0625 16.1955C8.0625 15.687 8.265 15.2115 9.2415 15.2115H12.7335C13.617 15.2115 13.953 15.618 14.2965 16.563C16.023 21.5475 18.8985 25.914 20.085 25.914C20.523 25.914 20.7255 25.7115 20.7255 24.594V19.446C20.592 17.0715 19.3425 16.8675 19.3425 16.0245C19.3425 15.618 19.6785 15.2115 20.217 15.2115H25.7085C26.451 15.2115 26.724 15.618 26.724 16.4925V23.4375C26.724 24.1875 27.06 24.453 27.2625 24.453C27.7005 24.453 28.0755 24.1875 28.887 23.3745C31.395 20.562 33.192 16.2255 33.192 16.2255C33.426 15.717 33.8325 15.2415 34.716 15.2415H38.208C39.255 15.2415 39.489 15.78 39.255 16.53C38.817 18.561 34.5435 24.5925 34.5435 24.5925C34.176 25.2015 34.035 25.467 34.5435 26.1465C34.9185 26.655 36.138 27.7095 36.9495 28.6545C38.442 30.3495 39.5895 31.7715 39.8955 32.7555C40.239 33.732 39.732 34.2405 38.7465 34.2405L38.751 34.242Z" fill="black"/>
</svg>
